<svg width="390" height="844" viewBox="0 0 390 844" fill="none" xmlns="http://www.w3.org/2000/svg">
<rect width="390" height="844" fill="white"/>
<path d="M120.666 404.296C121.338 404.296 121.674 404.616 121.674 405.256V419.944C121.674 422.312 121.898 423.992 122.346 424.984C122.794 425.976 123.594 426.472 124.746 426.472C125.93 426.472 126.746 425.992 127.194 425.032C127.674 424.04 127.914 422.344 127.914 419.944V411.112C127.914 409.736 127.818 408.536 127.626 407.512C127.434 406.456 127.082 405.592 126.57 404.92C126.09 404.216 125.418 403.704 124.554 403.384C123.722 403.032 122.666 402.856 121.386 402.856H112.746C112.074 402.856 111.738 402.536 111.738 401.896V396.664C111.738 396.024 112.074 395.704 112.746 395.704H121.146C123.898 395.704 126.266 396.008 128.25 396.616C130.234 397.224 131.85 398.168 133.098 399.448C134.378 400.696 135.322 402.312 135.93 404.296C136.538 406.28 136.842 408.648 136.842 411.4V419.608C136.842 422.328 136.554 424.6 135.978 426.424C135.434 428.216 134.634 429.656 133.578 430.744C132.522 431.832 131.242 432.6 129.738 433.048C128.266 433.496 126.602 433.72 124.746 433.72C122.922 433.72 121.258 433.496 119.754 433.048C118.282 432.6 117.018 431.832 115.962 430.744C114.938 429.656 114.138 428.216 113.562 426.424C113.018 424.6 112.746 422.328 112.746 419.608V405.256C112.746 404.616 113.066 404.296 113.706 404.296H120.666ZM140.922 433.96C140.25 433.96 139.914 433.64 139.914 433V395.8C139.914 395.128 140.25 394.792 140.922 394.792H147.786C148.458 394.792 148.794 395.128 148.794 395.8V409.048H151.29C151.93 409.048 152.25 409.384 152.25 410.056V416.44C152.25 417.08 151.93 417.4 151.29 417.4H148.794V433C148.794 433.64 148.458 433.96 147.786 433.96H140.922ZM191.553 425.8C192.193 425.8 192.513 426.12 192.513 426.76V432.52C192.513 433.16 192.193 433.48 191.553 433.48H157.713C157.073 433.48 156.753 433.16 156.753 432.52V421.624C156.753 420.984 157.073 420.664 157.713 420.664H164.961C165.633 420.664 165.969 420.984 165.969 421.624V425.8H191.553ZM184.449 420.904C183.777 420.904 183.441 420.584 183.441 419.944V395.8C183.441 395.128 183.777 394.792 184.449 394.792H191.073C191.745 394.792 192.081 395.128 192.081 395.8V419.944C192.081 420.584 191.745 420.904 191.073 420.904H184.449ZM155.841 417.496C155.201 417.496 154.881 417.176 154.881 416.536V411.256C154.881 410.616 155.201 410.296 155.841 410.296C156.449 410.296 156.977 410.104 157.425 409.72C157.873 409.336 158.241 408.808 158.529 408.136C158.817 407.464 159.025 406.68 159.153 405.784C159.281 404.856 159.345 403.864 159.345 402.808H155.601C154.961 402.808 154.641 402.488 154.641 401.848V396.472C154.641 395.832 154.961 395.512 155.601 395.512H165.681C166.353 395.512 166.689 395.848 166.689 396.52V401.656C166.689 404.568 166.417 407.032 165.873 409.048C165.361 411.064 164.625 412.696 163.665 413.944C162.705 415.192 161.553 416.104 160.209 416.68C158.897 417.224 157.441 417.496 155.841 417.496ZM168.417 417.976C167.777 417.976 167.457 417.656 167.457 417.016V411.736C167.457 411.096 167.777 410.776 168.417 410.776C169.281 410.776 169.969 410.568 170.481 410.152C171.025 409.704 171.457 409.112 171.777 408.376C172.097 407.64 172.305 406.792 172.401 405.832C172.529 404.872 172.593 403.864 172.593 402.808H169.329C168.689 402.808 168.369 402.488 168.369 401.848V396.472C168.369 395.832 168.689 395.512 169.329 395.512H178.929C179.601 395.512 179.937 395.848 179.937 396.52V401.656C179.937 404.568 179.681 407.064 179.169 409.144C178.657 411.192 177.905 412.872 176.913 414.184C175.953 415.496 174.753 416.456 173.313 417.064C171.905 417.672 170.273 417.976 168.417 417.976Z" fill="#23AD5F"/>
<path d="M198.696 432.52C198.376 432.584 198.136 432.52 197.976 432.328C197.816 432.136 197.736 431.88 197.736 431.56V425.32C197.736 425 197.816 424.792 197.976 424.696C198.168 424.568 198.408 424.456 198.696 424.36C200.84 423.656 202.728 422.648 204.36 421.336C205.992 420.024 207.352 418.456 208.44 416.632C209.528 414.808 210.344 412.76 210.888 410.488C211.464 408.216 211.752 405.752 211.752 403.096H198.216C197.576 403.096 197.256 402.776 197.256 402.136V396.712C197.256 396.072 197.576 395.752 198.216 395.752H220.296C220.968 395.752 221.304 396.088 221.304 396.76V402.04C221.304 405.08 221.032 407.96 220.488 410.68H220.536H225.576V395.8C225.576 395.128 225.912 394.792 226.584 394.792H233.448C234.12 394.792 234.456 395.128 234.456 395.8V433C234.456 433.64 234.12 433.96 233.448 433.96H226.584C225.912 433.96 225.576 433.64 225.576 433V419.032H220.536C219.928 419.032 219.624 418.712 219.624 418.072V414.088C218.056 419.08 215.496 423.144 211.944 426.28C208.424 429.416 204.008 431.496 198.696 432.52ZM239.919 396.712C239.919 396.072 240.255 395.752 240.927 395.752H263.199C263.871 395.752 264.207 396.072 264.207 396.712V402.136C264.207 402.776 263.871 403.096 263.199 403.096H257.055L248.463 433C248.303 433.512 247.903 433.768 247.263 433.768H240.351C239.647 433.768 239.391 433.384 239.583 432.616L247.839 403.096H240.927C240.255 403.096 239.919 402.776 239.919 402.136V396.712ZM268.959 433.96C268.287 433.96 267.951 433.64 267.951 433V395.8C267.951 395.128 268.287 394.792 268.959 394.792H275.823C276.495 394.792 276.831 395.128 276.831 395.8V433C276.831 433.64 276.495 433.96 275.823 433.96H268.959ZM257.439 433.624C256.831 433.624 256.463 433.368 256.335 432.856L253.119 423.112C253.055 422.888 253.023 422.696 253.023 422.536C253.055 422.344 253.103 422.12 253.167 421.864L256.479 410.296C256.575 409.88 256.767 409.656 257.055 409.624C257.375 409.592 257.615 409.8 257.775 410.248L265.263 432.52C265.455 433.256 265.215 433.624 264.543 433.624H257.439Z" fill="#19191B"/>
<path d="M155 327.058L176.696 320L191.964 327.058L207.232 334.116L228.929 327.058L236 361.942L214.304 369L206.67 365.471L199.036 361.942L183.768 354.884L162.071 361.942L155 327.058Z" fill="#23AD5F"/>
</svg>
