<svg width="47" height="28" viewBox="0 0 47 28" fill="none" xmlns="http://www.w3.org/2000/svg">
<path fill-rule="evenodd" clip-rule="evenodd" d="M10.8533 0.5C12.1929 0.5 13.4777 0.953549 14.4249 1.76087C14.9431 2.20251 15.3371 2.73023 15.5877 3.30459H40.5167V23.706H33.3095L31.3004 27.4984H26.5167L24.744 23.706H19.2882L17.7411 27.4502H12.2554L10.502 23.706H3.23093V17.7523H0.0625V10.4193H3.23093V3.30459H7.08802V0.87793C8.45199 0.87793 9.7601 1.33148 10.7246 2.1388C10.7684 2.17546 10.8113 2.21271 10.8533 2.25053V0.5Z" fill="#23AD5F"/>
<path d="M39 10.9626C39.1201 10.8245 39.2655 10.7142 39.3835 10.5753C39.4997 10.4383 39.6399 10.3198 39.7814 10.2117C39.9165 10.1084 40.0543 9.99871 40.1971 9.90661C40.3545 9.80512 40.4873 9.66868 40.6452 9.56863C40.9524 9.37394 41.2638 9.20584 41.5968 9.0644C41.8555 8.95451 42.1021 8.91456 42.3799 8.8744C42.6449 8.8361 42.9076 8.80101 43.1747 8.79128C43.4733 8.78041 43.7293 8.8482 44 9C44.1519 9.08515 44.2916 9.18504 44.4274 9.29277C44.5648 9.40169 44.6817 9.58555 44.7724 9.73579C44.8988 9.94519 44.9221 10.1797 44.8996 10.4236C44.877 10.6703 44.7375 10.861 44.5 10.9169C44.1856 10.9908 43.8459 11.0279 43.5251 10.9753C43.3907 10.9533 43.2533 10.9241 43.129 10.8639C42.8998 10.7529 42.6984 10.5144 42.5502 10.3104C42.3454 10.0285 42.1942 9.68143 42.0609 9.36036C41.9593 9.11557 41.9677 8.87606 41.9677 8.61407C41.9677 8.38237 42.0185 8.17576 42.1039 7.96187C42.1522 7.84102 42.2231 7.68589 42.31 7.58918C42.627 7.23671 43.024 7.08155 43.4892 7.04202C43.8517 7.01122 44.2195 7 44.5833 7C44.8556 7 45.1337 7.00621 45.3996 7.07399C45.5365 7.10888 45.7074 7.17187 45.8306 7.23841" stroke="#23AD5F" stroke-width="1.5" stroke-linecap="round"/>
</svg>
