<svg width="48" height="48" viewBox="0 0 48 48" fill="none" xmlns="http://www.w3.org/2000/svg">
<g clip-path="url(#clip0_890_14440)">
<path fill-rule="evenodd" clip-rule="evenodd" d="M32.4066 25.97C32.4094 26.5511 32.6649 27.1023 33.1066 27.48C34.6166 28.83 33.5466 31.14 31.4066 31.14H27.6066C27.114 32.4844 25.8383 33.3814 24.4066 33.39C22.9702 33.3961 21.6868 32.4938 21.2066 31.14H17.4066C15.2666 31.14 14.1966 28.83 15.7066 27.48C16.1482 27.1023 16.4037 26.5511 16.4066 25.97V21.14C16.4066 17.2 19.9866 14 24.4066 14C28.8266 14 32.4066 17.2 32.4066 21.14V25.97ZM22.8866 31.14C23.2505 31.611 23.8114 31.8878 24.4066 31.89C24.9877 31.8756 25.5313 31.6001 25.8866 31.14H22.8866Z" fill="#B0B8C1"/>
</g>
<defs>
<clipPath id="clip0_890_14440">
<rect x="4" y="4" width="40" height="40" rx="20" fill="white"/>
</clipPath>
</defs>
</svg>
