<svg width="12" height="16" viewBox="0 0 12 16" fill="none" xmlns="http://www.w3.org/2000/svg">
<path d="M9.97435 15.3203L6.39935 12.5786C6.05955 12.3202 5.58915 12.3202 5.24935 12.5786L1.64102 15.3203C1.37789 15.5318 1.01916 15.5799 0.709578 15.4452C0.400001 15.3106 0.190655 15.0153 0.166016 14.6786V2.96193C0.198335 2.27498 0.503226 1.62927 1.01315 1.16784C1.52307 0.706409 2.19593 0.467341 2.88268 0.503596H8.71602C9.4069 0.472025 10.0816 0.718802 10.5891 1.18869C11.0966 1.65857 11.3944 2.31232 11.416 3.0036V14.6786C11.3836 15.0032 11.1796 15.2855 10.8815 15.4181C10.5835 15.5508 10.2372 15.5134 9.97435 15.3203Z" fill="#929BA5"/>
</svg>
