<svg width="20" height="20" viewBox="0 0 20 20" fill="none" xmlns="http://www.w3.org/2000/svg">
<path fill-rule="evenodd" clip-rule="evenodd" d="M14.6341 1.66797H5.36747C3.26655 1.74046 1.61595 3.49143 1.66747 5.59297V17.0346C1.64596 17.4191 1.86484 17.7766 2.217 17.9323C2.56916 18.088 2.98093 18.0093 3.2508 17.7346L5.2258 15.6263C5.60209 15.2316 6.12218 15.0062 6.66747 15.0013H14.6008C15.625 14.9753 16.5962 14.5403 17.2977 13.7935C17.9991 13.0467 18.3723 12.0502 18.3341 11.0263V5.59297C18.3857 3.49143 16.7351 1.74046 14.6341 1.66797ZM6.8758 6.01797H11.0425C11.3876 6.01797 11.6675 6.29779 11.6675 6.64297C11.6675 6.98815 11.3876 7.26797 11.0425 7.26797H6.8758C6.53062 7.26797 6.2508 6.98815 6.2508 6.64297C6.2508 6.29779 6.53062 6.01797 6.8758 6.01797ZM6.8758 10.6013H13.1258C13.471 10.6013 13.7508 10.3215 13.7508 9.9763C13.7508 9.63112 13.471 9.3513 13.1258 9.3513H6.8758C6.53062 9.3513 6.2508 9.63112 6.2508 9.9763C6.2508 10.3215 6.53062 10.6013 6.8758 10.6013Z" fill="#929BA5"/>
</svg>
