<svg width="17" height="17" viewBox="0 0 17 17" fill="none" xmlns="http://www.w3.org/2000/svg">
<path fill-rule="evenodd" clip-rule="evenodd" d="M8.94045 1.10907L15.9821 8.15074C16.6435 8.98982 16.514 10.2034 15.6904 10.8841L10.3821 16.1924C9.70148 17.0159 8.48787 17.1454 7.64878 16.4841L0.607116 9.4424C0.286547 9.11272 0.127953 8.65829 0.173782 8.20074L0.540449 3.20074C0.657028 2.06049 1.55854 1.15898 2.69878 1.0424L7.69878 0.675735C8.15633 0.629906 8.61077 0.7885 8.94045 1.10907ZM4.89879 6.59157C5.2138 6.59157 5.51503 6.46234 5.73212 6.23407C5.96039 6.01698 6.08962 5.71575 6.08962 5.40074C6.08962 5.08572 5.96039 4.78449 5.73212 4.5674C5.27188 4.10716 4.52569 4.10716 4.06545 4.5674C3.60521 5.02764 3.60521 5.77383 4.06545 6.23407C4.28254 6.46234 4.58377 6.59157 4.89879 6.59157Z" fill="#929BA5"/>
</svg>
