<svg width="18" height="19" viewBox="0 0 18 19" fill="none" xmlns="http://www.w3.org/2000/svg">
<path fill-rule="evenodd" clip-rule="evenodd" d="M13.0827 2.9737H13.166C15.4672 2.9737 17.3327 4.83918 17.3327 7.14036V14.6404C17.3327 16.9415 15.4672 18.807 13.166 18.807H4.83268C3.72761 18.807 2.66781 18.368 1.8864 17.5866C1.105 16.8052 0.666016 15.7454 0.666016 14.6404V7.14036C0.666016 4.83918 2.5315 2.9737 4.83268 2.9737H4.91602V1.45703C4.91602 1.11185 5.19584 0.832031 5.54102 0.832031C5.88619 0.832031 6.16602 1.11185 6.16602 1.45703V2.9737H11.8327V1.45703C11.8327 1.11185 12.1125 0.832031 12.4577 0.832031C12.8029 0.832031 13.0827 1.11185 13.0827 1.45703V2.9737ZM5.24935 8.0487H12.7493C13.0945 8.0487 13.3743 7.76887 13.3743 7.4237C13.3743 7.07852 13.0945 6.7987 12.7493 6.7987H5.24935C4.90417 6.7987 4.62435 7.07852 4.62435 7.4237C4.62435 7.76887 4.90417 8.0487 5.24935 8.0487Z" fill="#929BA5"/>
</svg>
